<?xml version="1.0" encoding="UTF-8" standalone="no"?>
<!-- Created with Inkscape (http://www.inkscape.org/) -->

<svg
   version="1.1"
   id="svg606"
   width="454.57333"
   height="701.33331"
   viewBox="0 0 454.57332 701.3333"
   sodipodi:docname="mundial-2026-logo.svg"
   inkscape:version="1.4.4 (dcaf3e7d9e, 2026-05-05)"
   xmlns:inkscape="http://www.inkscape.org/namespaces/inkscape"
   xmlns:sodipodi="http://sodipodi.sourceforge.net/DTD/sodipodi-0.dtd"
   xmlns="http://www.w3.org/2000/svg"
   xmlns:svg="http://www.w3.org/2000/svg">
  <sodipodi:namedview
     id="namedview1"
     pagecolor="#ffffff"
     bordercolor="#000000"
     borderopacity="0.25"
     inkscape:showpageshadow="2"
     inkscape:pageopacity="0.0"
     inkscape:pagecheckerboard="0"
     inkscape:deskcolor="#d1d1d1"
     showguides="true"
     inkscape:zoom="1"
     inkscape:cx="195.5"
     inkscape:cy="342"
     inkscape:window-width="1616"
     inkscape:window-height="988"
     inkscape:window-x="0"
     inkscape:window-y="0"
     inkscape:window-maximized="1"
     inkscape:current-layer="svg606">
    <sodipodi:guide
       position="30.621093,116.57159"
       orientation="0,-1"
       id="guide1"
       inkscape:locked="false" />
  </sodipodi:namedview>
  <defs
     id="defs610">
    <inkscape:path-effect
       effect="lattice2"
       gridpoint0="-16.51747,-85.479682"
       gridpoint1="197.12,-85.479682"
       gridpoint2="-16.51747,400.56462"
       gridpoint3="196.81985,400.56462"
       gridpoint4="36.816861,-85.479682"
       gridpoint5="143.48552,-85.479682"
       gridpoint6="36.816861,400.56462"
       gridpoint7="143.48552,400.56462"
       gridpoint8x9="90.151191,-85.479682"
       gridpoint10x11="90.151191,400.56462"
       gridpoint12="-16.51747,36.031392"
       gridpoint13="196.81985,36.031392"
       gridpoint14="-16.51747,279.05354"
       gridpoint15="196.81985,279.05354"
       gridpoint16="36.816861,36.031392"
       gridpoint17="143.48552,36.031392"
       gridpoint18="36.816861,279.05354"
       gridpoint19="143.48552,279.05354"
       gridpoint20x21="90.151191,36.031392"
       gridpoint22x23="90.151191,279.05354"
       gridpoint24x26="-16.51747,157.54247"
       gridpoint25x27="196.81985,157.54247"
       gridpoint28x30="32.01998,147.22115"
       gridpoint29x31="143.48552,144.12476"
       gridpoint32x33x34x35="91.110567,144.12476"
       id="path-effect1"
       is_visible="true"
       lpeversion="1"
       horizontal_mirror="false"
       vertical_mirror="false"
       perimetral="false"
       live_update="true" />
    <clipPath
       clipPathUnits="userSpaceOnUse"
       id="clipPath622">
      <path
         d="M 0,295.739 H 228.526 V 0 H 0 Z"
         id="path620" />
    </clipPath>
  </defs>
  <g
     id="g614"
     transform="matrix(2.6492491,0,0,-2.6492491,-71.183392,735.88071)">
    <g
       id="g616"
       style="display:inline;stroke-width:1.00013;stroke-dasharray:none">
      <g
         id="g618"
         clip-path="url(#clipPath622)"
         style="display:inline;stroke-width:1.00013;stroke-dasharray:none">
        <g
           id="g624"
           transform="translate(156.8791,144.2182)"
           inkscape:label="2026"
           style="stroke:#ffffff;stroke-width:1.00013;stroke-dasharray:none;stroke-opacity:1">
          <path
             id="path626"
             style="fill:#00d8ff;fill-opacity:1;fill-rule:nonzero;stroke:#003bff;stroke-width:3.03317;stroke-linecap:round;stroke-linejoin:round;stroke-dasharray:none;stroke-opacity:0.64237255;paint-order:fill markers stroke"
             inkscape:label="2026"
             d="m -86.03675,130.23167 c -23.09854,0 -41.82125,-18.72393 -41.82125,-41.820517 h 41.82125 c -23.09854,0 -41.82125,-18.722953 -41.82125,-41.820515 V 4.7693961 H 39.424069 V 46.590638 H -2.3964461 c 23.0975621,0 41.8205151,18.723934 41.8205151,41.820515 0,23.096587 -18.722953,41.820517 -41.8205151,41.820517 z m 0,-132.6282038 c -23.09854,0 -41.82125,-18.7232072 -41.82125,-41.8197892 v -41.820514 c 0,-23.097563 18.72271,-41.821243 41.82125,-41.821243 h 83.6403039 c 23.0975621,0 41.8205151,18.72368 41.8205151,41.821243 0,23.096581 -18.722953,41.820514 -41.8205151,41.820514 H 39.424069 c 0,23.096582 -18.722953,41.8197892 -41.8205151,41.8197892 z m 20.659911,-69.4036412 h 42.319755 c 7.339366,0 13.247632,-5.908265 13.247632,-13.247632 0,-7.339367 -5.908266,-13.247632 -13.247632,-13.247632 h -42.319755 c -7.339366,0 -13.248358,5.908265 -13.248358,13.247632 0,7.339367 5.908992,13.247632 13.248358,13.247632 z" />
        </g>
      </g>
    </g>
    <g
       id="g1"
       transform="matrix(0.39087905,0,0,-0.36332577,79.761196,225.21886)"
       inkscape:path-effect="#path-effect1"
       style="stroke:#000000;stroke-opacity:1">
      <g
         id="g100501"
         transform="matrix(1.0671879,0,0,0.97368312,-17.690199,-86.276945)"
         style="stroke:#000000;stroke-opacity:1">
        <path
           style="display:none;fill:#f6e79c;stroke:#000000;stroke-opacity:1"
           d="m 27.321888,498.74922 c 0.294639,-0.68838 2.538878,-5.75394 4.973949,-11.34149 13.338107,-30.6058 22.644308,-66.63349 27.523807,-103.73703 1.1554,-8.78564 1.605483,-24.51662 1.445892,-39.82751 C 61.105681,328.50705 60.339585,313.71647 59.021468,306.27314 56.759833,293.5018 54.263749,282.89593 50.162589,270.33109 45.895989,257.2594 40.486001,243.72055 31.783782,222.98436 25.484716,207.97456 19.673661,193.165 17.544414,186.92323 8.2972014,159.81546 2.7654634,132.35197 1.0372795,108.01087 -0.3697678,88.192924 1.7608641,74.696742 9.5161302,57.798112 18.59538,38.014539 33.425139,22.84512 51.325181,12.961705 69.176265,3.1053228 90.019876,-1.5011898 111.13432,0.9490874 c 21.83502,2.5338975 41.53311,11.0690916 56.67096,23.9447366 15.29914,13.012842 26.3077,30.776363 31.55049,52.20565 1.76801,7.226571 1.97581,10.635348 1.59032,25.828886 -0.31531,12.42768 -1.15846,22.48116 -3.10971,33.17161 -1.94497,10.65604 -5.01914,22.07185 -9.77265,36.76622 -2.24119,6.92811 -6.46634,18.0109 -11.74967,30.90366 -5.12199,12.49907 -11.37136,27.01721 -16.8313,39.46505 -10.81785,24.66303 -16.87508,47.51478 -19.87827,73.62783 -0.89843,7.81201 -1.05427,21.06009 -0.62784,34.71752 0.4267,13.66583 1.43292,27.6667 2.85247,36.73888 2.59433,16.58016 6.31404,33.91522 10.82051,50.3246 4.53442,16.51115 9.76272,31.73845 15.53799,45.18024 3.26607,7.60173 6.18129,14.23664 6.48115,14.92514 0.43342,0.99493 -14.67316,1.2509 -73.66877,1.2509 -58.990346,0 -74.103918,-0.25611 -73.678131,-1.25051"
           id="path100507"
           inkscape:original-d="m 27.321955,498.75 c 0.294763,-0.6875 2.540023,-5.75 4.989466,-11.25 13.314919,-29.89742 23.251039,-63.12425 28.408717,-95 2.492159,-15.40218 2.469666,-55.64158 -0.03913,-70 C 56.365735,297.80267 51.098455,280.44392 33.523432,233 27.309337,216.225 20.600829,197.45013 18.615635,191.27807 8.7090907,160.47813 2.8486821,132.71985 1.0347223,108.00469 -0.43002932,88.04749 1.8397425,74.862967 9.6176816,58.148482 27.731555,19.222481 68.802647,-3.954236 110.97977,0.94911552 154.83908,6.0480312 188.69406,35.352759 199.11991,77.24284 c 1.76976,7.110739 1.97929,10.472863 1.6028,25.71863 -0.61652,24.96511 -3.34378,40.5774 -12.81427,73.35551 -4.32036,14.95311 -17.35682,52.46337 -28.3106,81.45912 -10.66156,28.22218 -16.64339,51.22023 -19.64888,75.54309 -1.80055,14.57152 -0.73167,47.84155 2.04591,63.68081 5.06935,28.90821 14.69062,60.87224 26.18728,87 3.26712,7.425 6.18583,14.0625 6.48602,14.75 C 175.10205,499.74367 159.99561,500 101,500 42.009654,500 26.895959,499.74359 27.321955,498.75 Z" />
        <path
           style="display:inline;fill:#f6dc32;fill-opacity:1;stroke:#000000;stroke-opacity:1"
           d="m 30.970476,491.50852 c 7.168556,-15.8087 13.391072,-33.79601 18.550638,-53.5378 5.099735,-19.51287 8.976877,-40.10097 11.172076,-58.90495 2.203907,-18.87858 1.832854,-51.86104 -0.716506,-68.67668 -1.956881,-12.90768 -4.490398,-24.30241 -8.835637,-37.94305 -4.520874,-14.192 -10.328782,-28.8681 -19.468011,-50.65089 C 22.494516,199.91871 16.711941,184.21056 12.345472,168.99706 8.0525851,154.03994 5.3366391,140.16392 2.8787461,123.27324 0.05459769,103.86565 0.52762838,86.483834 4.7437231,71.111768 8.9767378,55.678011 16.932286,42.339601 28.903132,30.472599 42.824046,16.672447 58.26453,8.0752299 76.777387,3.4210913 92.717269,-0.586201 112.97295,0.07515417 130.67965,5.1260824 c 12.43144,3.5461324 24.58323,10.0475896 34.93905,18.4553006 10.42585,8.464566 19.11589,18.923733 24.96733,30.614725 10.90985,21.797565 13.1044,42.212518 8.09844,73.531922 -2.49221,15.59228 -5.78218,29.73622 -11.3368,46.3305 -6.05144,18.07851 -12.94898,34.17224 -25.19168,62.32225 -6.60246,15.18126 -11.05667,26.81527 -14.31372,37.46054 -3.24785,10.61523 -5.332,20.33772 -7.15838,32.03813 -3.1045,19.88847 -3.51364,41.83408 -1.20255,65.60375 2.30212,23.67756 7.33281,49.32352 15.04604,75.40002 2.00717,6.78574 5.47158,16.83441 9.05915,26.37275 3.56247,9.47158 7.07513,17.98728 9.06539,21.98017 0.79414,1.59323 2.38177,4.76387 2.38177,4.76387 -24.66195,0 -73.97106,0 -73.97106,0 -24.661954,0 -73.971064,0 -73.971064,0 1.297201,-2.82069 2.586797,-5.64202 3.87891,-8.49149 z"
           id="path100506"
           inkscape:original-d="M 30.97735,491.54926 C 45.238334,460.5347 56.865921,421.45696 61.63967,388.5 64.03152,371.98717 64.011378,342.61473 61.59715,326.5 57.918064,301.94239 51.863433,281.59305 33.407167,231.75473 14.54682,180.82524 8.1775515,158.17434 2.966724,123.5 -2.9845037,83.898827 5.1821863,54.79747 28.950947,30.907267 42.896086,16.890878 58.083278,8.1467113 76.672413,3.4311905 92.51522,-0.58766736 112.8879,0.06415941 130.5,5.153412 c 24.92288,7.201799 48.20247,26.468456 59.85024,49.533268 10.92194,21.627536 13.09348,41.253699 8.12771,73.45744 -4.98091,32.30189 -13.02438,59.34639 -36.24191,121.85588 -13.03456,35.09349 -17.54909,50.6466 -21.20438,73.0518 -6.17871,37.87246 -1.85922,78.15831 13.51233,126.02325 3.91017,12.17575 14.15494,38.30288 18.10577,46.17495 l 2.38393,4.75 H 101.06263 27.091566 Z" />
        <path
           style="fill:#f6dc34;fill-opacity:0;stroke:#000000;stroke-opacity:1"
           d="m 29.432374,495.11642 c 3.71624,-7.38794 8.301181,-18.96947 12.711487,-32.26201 4.418854,-13.3183 8.490565,-27.83834 11.301378,-40.42372 7.417851,-33.21334 10.047747,-60.21058 8.847961,-86.68922 -0.832101,-18.36401 -2.61684,-32.99 -6.92202,-49.59463 C 50.946455,269.08114 44.377849,251.62417 33.722073,226.22858 23.660199,202.24842 17.733637,186.53208 13.173925,170.95631 8.7162762,155.72919 5.8781472,141.53305 2.755535,122.29192 2.0605287,118.00939 1.5011607,107.47435 1.5240851,98.962321 1.558835,86.059411 1.9325969,82.006936 3.8089327,74.840562 8.3535449,57.48312 17.060683,42.373061 29.093393,30.356747 41.035342,18.43107 56.314245,9.5115627 73.599539,4.4427374 80.341351,2.4657351 85.682973,1.6581353 94.77339,1.2648277 c 24.04423,-1.0403019 43.93569,4.3828772 63.60563,17.0915743 14.64247,9.460468 29.51522,27.769052 35.96517,44.653495 7.3645,19.278508 8.51021,36.351297 4.321,63.472423 -2.19807,14.23039 -5.2825,27.75721 -10.12166,42.88221 -5.0237,15.70178 -11.28834,31.30531 -20.80112,53.14592 -7.89181,18.11899 -12.33547,28.8968 -15.42322,37.19107 -3.01393,8.09599 -4.66368,13.67114 -6.61852,21.12251 -6.30782,24.04393 -7.53778,34.69292 -7.49204,62.02369 0.0246,14.69053 0.58925,28.20006 1.44133,34.50162 4.37657,32.36706 11.14993,61.1899 22.12481,91.42469 3.6063,9.93502 7.4569,19.59294 8.72648,22.17299 1.23075,2.50112 2.55737,5.56684 2.93769,6.79994 0.23198,0.75252 0.69584,2.25305 0.69584,2.25305 -24.53299,0 -73.58424,0 -73.58424,0 -24.532984,0 -73.584232,0 -73.584232,0 0.823261,-1.6244 1.644463,-3.25024 2.466066,-4.88359 z"
           id="path100505"
           sodipodi:nodetypes="ssssssssssssssssssscccs"
           inkscape:original-d="M 29.434471,495.12932 C 36.821889,480.55095 48.134207,448.99123 53.943021,426.75404 61.697245,397.06946 64.615126,374.05482 63.674182,350 62.365963,316.55596 57.078037,295.33591 35.51517,237 14.966007,181.40655 9.4485419,162.07431 2.8366108,122.5 2.1014749,118.1 1.5176901,107.525 1.5393113,99 1.5720882,86.076434 1.9589903,82.087117 3.8669407,75 13.049914,40.889678 38.869518,14.734428 73.5,4.4617363 80.223191,2.4673875 85.571649,1.6587203 94.64192,1.265156 118.72233,0.22029311 138.447,5.6156243 158.17049,18.64226 c 14.53308,9.598563 29.58358,28.346289 35.93711,44.765215 7.37481,19.058143 8.509,35.610385 4.3504,63.488915 -4.3854,29.39889 -12.24292,56.80834 -30.70361,107.10361 -15.52075,42.28556 -17.8205,49.10497 -21.75173,64.5 -6.23104,24.40125 -7.46718,34.06116 -7.48606,58.5 -0.0101,13.12738 0.51269,25.00482 1.34256,30.5 4.26867,28.26603 10.93559,53.21494 21.91226,82 3.56546,9.35 7.49221,19.025 8.72611,21.5 1.2339,2.475 2.55706,5.5125 2.94035,6.75 l 0.6969,2.25 H 100.55054 26.966308 Z" />
        <path
           style="fill:#f5c712;fill-opacity:1;stroke:#000000;stroke-opacity:1"
           d="m 28.000013,499.54476 c -5e-6,-0.25045 1.857812,-4.63364 4.116923,-9.81155 3.978838,-9.11955 9.01986,-22.62916 14.257905,-38.98632 1.540462,-4.8105 4.078596,-14.98077 6.560123,-26.11029 2.459147,-11.02914 4.770421,-22.5848 5.767507,-29.07176 3.814427,-24.8163 4.648832,-48.21585 2.597574,-70.57192 C 59.238549,302.52526 54.308098,281.36576 46.667024,260.34395 44.250418,253.69548 38.71209,237.72661 31.761801,221.01779 23.782107,201.83424 18.662555,189.60811 14.612543,177.84087 10.659319,166.35485 8.0172688,156.05317 5.6235792,142.1554 4.4416439,135.29307 3.9987647,129.11293 4.2865596,128.77033 c 0.2884548,-0.34339 0.5236123,-0.0875 0.5223062,0.56806 -0.0064,3.21114 6.4269532,16.91727 10.7681382,22.51765 5.465432,7.05072 13.848232,14.6445 15.283443,14.20964 0.475131,-0.14396 2.213941,-1.97338 3.865885,-4.03993 4.807662,-6.01426 8.622851,-8.5398 15.7472,-10.36363 13.941463,-3.56904 23.957405,4.34366 22.77905,16.82185 -0.208666,2.20966 -0.306206,4.01651 -0.217844,3.99989 0.638486,-0.12004 5.578522,-9.67603 9.611207,-18.20926 12.751398,-26.98216 30.188895,-45.25337 53.676015,-59.046235 6.90107,-4.052669 15.69526,-8.522764 24.36527,-12.722869 8.31691,-4.029052 17.62819,-8.350051 23.82607,-10.83234 12.43012,-4.97834 11.69095,-5.608695 14.3354,5.642795 2.9559,12.576591 2.94147,28.961029 -0.0722,48.482409 -2.24898,14.56812 -5.33165,28.19361 -10.17013,43.36915 -5.02347,15.75575 -11.28997,31.36173 -20.86398,53.34293 -7.89181,18.11899 -12.33547,28.8968 -15.42322,37.19107 -3.01393,8.09599 -4.66368,13.67114 -6.61852,21.12251 -6.37827,24.31249 -7.55594,34.63772 -7.47932,62.58495 0.0397,14.53957 0.61045,28.51395 1.38503,33.93472 3.24198,22.68879 6.38487,38.64686 12.54659,62.31206 1.33222,5.11663 4.78517,15.55772 8.54369,25.97169 3.7818,10.47848 7.65835,20.34665 9.97604,25.49772 1.95424,4.34329 4.33898,8.18548 4.33886,8.43013 -1.1e-4,0.24465 -33.86156,0.44472 -74.01156,0.44472 -40.150001,0 -72.999985,-0.20481 -72.999966,-0.45514 h 4e-5"
           id="path100504"
           sodipodi:nodetypes="sssssssssssssssssssssscsssssss"
           inkscape:original-d="m 28,499.54486 c 0,-0.25033 1.857256,-4.63783 4.127236,-9.75 C 36.078105,480.8972 41.271881,467.51854 46.605613,452.5 49.707388,443.76613 57.359554,414.33896 59.477466,403 67.61872,359.41306 63.785442,321.35722 48.607682,275.5 46.605262,269.45 40.266893,249.425 33.49642,231 17.174225,186.58118 11.017784,171.8418 5.8856123,142.89735 4.6242221,135.78335 4.1490443,129.51762 4.4509964,129.21567 4.7529484,128.91372 5,129.20618 5,129.86559 c 0,3.22833 6.802803,18.20565 11.36326,25.0178 C 22.044349,163.36948 30.888591,174 32.267648,174 c 0.487409,0 2.249337,-1.36314 3.915394,-3.0292 4.892747,-4.89274 8.627001,-6.40376 15.816958,-6.40012 13.92541,0.007 23.907726,10.54827 22.829317,24.1075 -0.189051,2.377 -0.272435,4.32182 -0.185299,4.32182 0.668183,0 5.399489,-9.37949 9.331979,-18.5 12.171908,-28.22997 29.395973,-51.16842 52.448043,-69.84862 13.64599,-11.058004 34.78762,-25.033503 47.8763,-31.64824 12.37451,-6.25381 11.69503,-6.467287 14.31331,4.49686 2.96401,12.411906 2.94908,28.61823 -0.0449,48.69094 -4.48756,30.08663 -12.23253,57.18364 -30.8144,107.80906 -15.52075,42.28556 -17.8205,49.10497 -21.75173,64.5 -6.30063,24.6738 -7.48484,34.02095 -7.47481,59 0.005,12.98727 0.53292,25.27736 1.28812,30 3.19808,19.99921 6.21026,33.39664 12.36578,55 2.59694,9.11422 13.94214,38.70215 18.48728,48.67581 1.95564,4.29137 4.34232,8.13506 4.34232,8.37959 0,0.24453 -33.86135,0.4446 -74.01135,0.4446 -40.15,0 -73,-0.20481 -73,-0.45514 z" />
        <path
           style="fill:#ddc327;fill-opacity:1;stroke:#000000;stroke-opacity:1"
           d="m 39.90949,470.06923 c -0.001,-0.18391 0.70255,-2.53302 1.56113,-5.24506 0.520455,-1.64399 1.559175,-4.95166 1.559175,-4.95166 10.686564,-0.31373 22.966325,-0.64914 36.085211,-0.84633 12.040584,-0.18098 21.676854,-0.1815 21.676854,-0.1815 11.0302,-0.0157 22.70295,0.0865 36.13582,0.36525 12.04169,0.24988 21.66829,0.55168 21.66829,0.55168 0.44859,1.33602 1.34511,3.99295 1.34511,3.99295 0.75426,2.23165 1.53959,4.51623 1.81061,5.28012 0.36978,1.04222 -12.17761,0.68514 -60.70107,0.72106 -33.647804,0.0249 -61.140089,0.4974 -61.14113,0.31349 z m 11.679553,-38.94306 c -0.0025,-0.25635 1.082848,-5.11039 2.409266,-10.86558 3.303144,-14.33199 6.680228,-37.20609 7.990275,-53.73325 0.998457,-12.59625 0.457558,-39.44489 -1.031333,-52.54701 -0.972062,-8.55408 2.157542,5.76589 5.627394,26.5496 2.495298,14.94632 4.271717,32.07565 5.069948,46.55245 0.798569,14.48292 0.610106,26.13652 -0.798069,30.46959 -0.242753,0.74697 0.780837,1.07923 5.880948,1.05623 5.10011,-0.023 14.28186,-0.51021 30.363838,-0.36596 20.25779,0.1817 36.81161,1.32552 36.81088,0.95228 -7.2e-4,-0.37326 -2.25956,-3.58371 -5.0246,-7.17137 -9.52802,-12.36266 -18.48619,-30.4456 -26.69343,-52.90003 -8.13394,-22.2539 -15.447178,-48.62038 -21.191769,-75.88662 -2.607414,-12.37589 -2.904025,-15.64652 -2.979313,-35.60725 -0.06958,-18.4475 0.276925,-23.18441 2.307335,-33.02667 4.148496,-20.10952 12.397167,-40.31797 23.767487,-58.16649 11.46621,-17.99906 25.45493,-32.70586 41.56247,-45.98733 3.0014,-2.47481 5.27401,-4.73593 5.05613,-4.97123 -0.21787,-0.2353 -3.16841,0.57123 -6.56246,1.77485 -8.80996,3.12425 -19.44225,8.41104 -30.87313,16.04686 -11.47078,7.66248 -24.890398,18.43486 -39.372924,34.15372 -2.393826,2.59818 -4.347227,4.42622 -4.343441,3.96337 0.0071,-0.87285 2.061509,-5.4233 4.749709,-10.6176 2.74071,-5.29576 5.957039,-10.92079 8.540235,-14.81786 7.984031,-12.04488 16.740931,-21.57338 27.491931,-29.91278 11.03994,-8.563536 23.3114,-15.290119 39.75775,-23.338432 6.35253,-3.108717 19.58141,-9.12297 24.40913,-11.056502 12.43012,-4.97834 11.69095,-5.608695 14.3354,5.642795 2.9559,12.576591 2.94147,28.961029 -0.0722,48.482409 -2.24898,14.56812 -5.33165,28.19361 -10.17013,43.36915 -5.02347,15.75575 -11.28997,31.36173 -20.86398,53.34293 -7.89181,18.11899 -12.33547,28.8968 -15.42322,37.19107 -3.01393,8.09599 -4.66368,13.67114 -6.61852,21.12251 -6.30782,24.04393 -7.53778,34.69292 -7.49204,62.02369 0.0246,14.69053 0.58925,28.20007 1.44133,34.50162 2.03507,15.05048 5.928,36.21284 8.28782,45.05946 1.10934,4.1586 2.01576,7.84248 2.01628,8.22964 5.2e-4,0.38718 -22.13344,-1.05868 -49.21271,-0.9684 -13.775229,0.0459 -25.606074,0.4946 -34.740609,0.8996 -8.901527,0.39466 -14.410391,0.68472 -14.411658,0.55654 z m 7.91601,-124.42858 c -0.01154,-1.48825 0.212149,-2.15279 0.496795,-1.47615 0.28468,0.67673 0.294132,1.89665 0.02096,2.70907 -0.273079,0.81216 -0.506203,0.25672 -0.517756,-1.23292 z M 40.281168,203.33437 C 27.6152,204.60395 20.009881,191.49011 25.57505,177.67641 c 2.664275,-6.61318 3.951377,-7.24334 2.805069,-1.73362 -1.381189,6.63867 0.849037,12.36986 5.144717,15.74449 4.321775,3.39513 10.694502,4.41047 17.711254,2.19996 3.51488,-1.1073 11.429095,-6.31774 14.3627,-9.42545 1.917486,-2.03129 1.872048,-1.92553 0.263322,1.34884 -1.579397,3.21466 -5.93185,7.95452 -10.336655,11.4092 -2.888835,2.2657 -11.512322,5.74047 -15.244289,6.11454 z"
           id="path100503"
           inkscape:original-d="m 40,470.67814 c 0,-0.17702 0.717301,-2.42702 1.594002,-5 L 43.188004,461 h 57.705106 57.70511 l 1.34222,3.75 c 0.73821,2.0625 1.55176,4.3125 1.80787,5 0.36935,0.99144 -12.17404,1.25 -60.64132,1.25 C 67.498145,471 40,470.85516 40,470.67814 Z m 12,-36.10598 c 0,-0.23531 1.133124,-4.62281 2.518054,-9.75 3.439853,-12.73478 7.078454,-32.8876 8.544039,-47.32216 1.123769,-11.06801 0.860179,-35.10368 -0.520915,-47.5 -0.90912,-8.16002 2.114455,5.98832 5.342633,25 4.660454,27.44676 6.360263,60.98846 3.472156,68.51475 C 70.858261,424.81175 75.425851,425 107.39301,425 127.52686,425 144,424.72559 144,424.39021 c 0,-0.33539 -2.24281,-3.06379 -4.98403,-6.06311 C 120.21014,397.75053 103.3976,357.38814 92.341561,306.27444 89.828645,294.65685 89.574865,291.59825 89.539208,272.5 89.5055,254.44581 89.823921,249.88682 91.809154,240 c 7.994951,-39.81628 32.202176,-85.79836 63.827466,-121.24147 2.97087,-3.32952 5.22418,-6.23107 5.00736,-6.44789 -0.21682,-0.21682 -3.14581,1.21844 -6.50886,3.18947 -17.87633,10.47703 -40.33626,30.92783 -68.890037,62.72755 C 82.910288,180.82787 81,182.53555 81,182.02251 c 0,-1.935 7.949676,-18.86555 12.860055,-27.38827 15.525885,-26.94755 33.979315,-45.68617 66.131515,-67.15354 7.42964,-4.960615 18.36858,-11.475517 24.30877,-14.47756 12.37451,-6.25381 11.69503,-6.467287 14.31331,4.49686 2.96401,12.411906 2.94908,28.61823 -0.0449,48.69094 -4.48756,30.08663 -12.23253,57.18364 -30.8144,107.80906 -15.52075,42.28556 -17.8205,49.10497 -21.75173,64.5 -6.23104,24.40125 -7.46718,34.06116 -7.48606,58.5 -0.0101,13.12738 0.51269,25.00482 1.34256,30.5 1.95547,12.94863 5.8264,31.72855 8.14385,39.5101 C 149.10135,430.69814 150,434.00461 150,434.35781 150,434.71102 127.95,435 101,435 74.05,435 52,434.80747 52,434.57216 Z M 61.157895,323 c 0,-1.375 0.226973,-1.9375 0.504386,-1.25 0.277412,0.6875 0.277412,1.8125 0,2.5 -0.277413,0.6875 -0.504386,0.125 -0.504386,-1.25 z M 42.123254,216.0455 c -13.000105,-3.25218 -20.76571,-19.42755 -15.205419,-31.67213 2.680118,-5.90201 4.0406,-6.31529 2.880287,-0.87494 -2.743756,12.86462 9.325547,26.57042 23.317898,26.47961 3.68208,-0.0239 11.216199,-3.08084 14.252801,-5.78303 1.861715,-1.65668 1.867799,-1.62269 0.269035,1.5033 -1.568561,3.06693 -5.811034,6.85418 -10.214883,9.11882 -2.995479,1.5404 -11.366028,2.21245 -15.299719,1.22837 z" />
        <path
           style="fill:#e1b50b;fill-opacity:1;stroke:#000000;stroke-width:0.99861;stroke-opacity:1"
           d="m 40.420584,468.05372 c 0.371334,-1.27896 1.060036,-3.44299 1.507324,-4.73631 0.274358,-0.79331 0.822477,-2.38444 0.822477,-2.38444 10.693283,-0.29977 22.988672,-0.62134 36.115173,-0.81133 12.05008,-0.17441 21.693822,-0.17641 21.693822,-0.17641 11.03772,-0.0166 22.72164,0.0792 36.16417,0.34386 12.05128,0.23726 21.68586,0.52489 21.68586,0.52489 0.53601,1.43202 1.60722,4.27792 1.60722,4.27792 0.88372,2.34339 1.60637,4.46911 1.60641,4.74446 5e-5,0.27534 -27.42545,-0.11004 -60.95796,-0.0803 -20.326794,0.018 -60.929391,0.65053 -60.929391,0.65053 -6.6e-5,2.2e-4 0.684961,-2.35309 0.684895,-2.35287 z m 11.553863,-39.48894 c 1.641515,-4.73701 3.386434,-15.11774 4.932699,-27.13455 1.539893,-11.96728 2.872142,-25.47562 3.667854,-35.90157 0.93391,-12.2367 1.690325,-41.12865 0.277592,-52.07091 -1.13093,-8.75956 2.523025,8.54305 5.612252,27.09277 2.637439,15.83689 4.430611,33.51524 5.145202,48.11411 0.715196,14.61124 0.344586,25.9759 -1.31472,29.64427 -0.473598,1.04703 -0.669725,4.67044 3.752302,7.85596 4.539096,3.26985 13.388551,5.85345 31.618222,5.93304 10.28815,0.0449 20.45783,-2.4975 27.72084,-5.1419 7.31455,-2.66316 11.87672,-5.50589 11.19782,-6.43441 -0.15402,-0.21066 -2.52893,-3.84061 -5.62499,-7.95708 -9.90145,-13.16484 -18.92126,-31.28485 -27.0824,-53.5746 -8.10242,-22.12938 -15.272698,-48.17851 -21.065239,-75.73904 -2.600321,-12.37216 -2.896292,-15.64318 -2.971584,-35.60281 -0.06959,-18.44687 0.276048,-23.18457 2.300732,-33.02898 4.229325,-20.56379 12.474311,-40.8032 24.085451,-58.80042 11.79077,-18.27564 26.13493,-33.0067 43.4424,-47.51239 2.2281,-1.86742 4.02208,-2.78956 4.01775,-2.03101 -0.004,0.75424 -0.71274,6.18953 -1.5758,12.04855 -2.05927,13.97955 -2.35297,32.03773 -0.57317,38.4077 1.58499,5.67281 4.84172,9.30392 7.90079,8.6921 5.63497,-1.127 12.60049,-8.24311 21.39115,-23.39946 8.77462,-15.12868 9.07928,-15.87261 8.43032,-10.71156 -1.56014,12.40743 -4.17845,25.75171 -9.54752,42.58275 -5.8153,18.22986 -13.10581,35.70714 -26.30682,64.7819 -8.48445,18.68668 -13.89438,34.29429 -17.33286,49.51639 -3.42873,15.17893 -4.8658,29.85534 -5.38406,47.14997 -0.58665,19.57644 0.58795,36.43933 3.9782,57.91868 1.84587,11.69474 5.16501,30.27511 6.86338,35.1375 0.37412,1.0711 -0.7633,1.31293 -10.34672,1.00036 -4.49065,-0.14647 -21.47697,-0.93415 -38.66114,-0.86933 -23.284757,0.0879 -35.571742,1.07322 -41.965293,1.22634 -6.39355,0.15313 -6.903468,-0.26656 -6.58264,-1.19237 z m 7.345836,-122.455 c 0.03836,-1.27174 0.274117,-1.58684 0.600791,-0.80103 0.295769,0.71146 0.267229,1.65522 -0.06314,2.09534 -0.33042,0.44019 -0.572382,-0.14284 -0.537652,-1.29431 0,0 3e-6,0 3e-6,0 z M 40.234443,203.35055 c -12.630713,1.25829 -20.213561,-11.8652 -14.664301,-25.67259 2.656922,-6.61081 3.940475,-7.2401 2.797253,-1.73113 -1.377423,6.63753 0.846454,12.37093 5.129994,15.74982 4.309474,3.39935 10.664216,4.42101 17.660883,2.21464 3.506057,-1.10563 11.39533,-6.31216 14.321828,-9.42127 1.911951,-2.03125 1.866845,-1.92582 0.262542,1.34898 -1.575077,3.21513 -5.91493,7.95445 -10.307308,11.40741 -2.881832,2.26548 -11.478273,5.73329 -15.200891,6.10414 z"
           id="path100502"
           sodipodi:nodetypes="sscccssscscssssssssssscssssssssssscsssssssssssss"
           inkscape:original-d="m 40.523159,468.75 c 0.384434,-1.2375 1.076692,-3.2625 1.538351,-4.5 L 42.900889,462 h 57.755251 57.75525 l 1.60411,4.02024 c 0.88226,2.21113 1.60411,4.23613 1.60411,4.5 0,0.26387 -27.40397,0.47976 -60.89771,0.47976 H 39.824189 Z m 11.887588,-36.5 c 3.36352,-8.42223 7.45135,-37.43333 9.256437,-55.8378 1.058469,-10.79202 2.086813,-36.6018 0.774431,-46.9122 -1.049495,-8.24509 2.438594,8.46374 5.323309,25.5 4.925321,29.08746 6.401224,62.82853 3.024968,69.1547 -0.949179,1.7785 -0.978283,12.9756 35.097608,12.9756 20.58698,0 40.1278,-10.01325 38.77934,-11.5925 -0.15296,-0.17914 -2.51129,-3.2845 -5.58065,-6.73397 C 119.52789,396.82336 103.28607,357.87972 92.154718,306.27444 89.648784,294.65685 89.395709,291.59825 89.360151,272.5 c -0.03362,-18.05419 0.283922,-22.61318 2.263639,-32.5 8.164206,-40.77247 32.13037,-85.79945 66.00054,-124 2.20694,-2.48911 3.98753,-3.8297 3.98462,-3 -0.003,0.825 -0.69662,6.9 -1.5416,13.5 -2.024,15.80909 -2.25996,35.56264 -0.49964,41.82605 1.58046,5.62349 4.8002,8.41011 7.83525,6.78127 5.64849,-3.0314 12.42962,-12.75305 21.24961,-30.46413 8.73871,-17.54785 9.05001,-17.95761 8.405,-12.64319 -3.11931,25.70073 -10.35617,55.36272 -35.56208,120.56216 -16.72603,43.26474 -21.38536,66.30729 -22.48771,97.63416 -0.62244,17.68832 0.48785,32.32724 3.80784,51.11629 1.77976,10.0723 5.10254,26.77087 6.76507,31.03108 0.37135,0.95158 -0.76522,1.29385 -10.31087,1.49248 C 132.24129,433.98242 120.4384,434 100.7891,434 54.447449,434 51.75082,433.9024 52.410747,432.25 Z m 8.568221,-109.83333 c 0.04785,-1.16495 0.284149,-1.4019 0.602488,-0.60417 0.288069,0.72187 0.25264,1.58438 -0.07873,1.91667 -0.331369,0.33229 -0.567061,-0.25834 -0.523761,-1.3125 z M 42.075944,216.0455 c -12.963984,-3.25218 -20.708012,-19.42755 -15.16317,-31.67213 2.672671,-5.90201 4.029373,-6.31529 2.872284,-0.87494 -2.736133,12.86462 9.299635,26.57042 23.253108,26.47961 3.671849,-0.0239 11.185035,-3.08084 14.213199,-5.78303 1.856542,-1.65668 1.862609,-1.62269 0.268288,1.5033 -1.564203,3.06693 -5.794888,6.85418 -10.186501,9.11882 -2.987156,1.5404 -11.334447,2.21245 -15.257208,1.22837 z" />
        <path
           style="fill:#006836;fill-opacity:1;stroke:#000000;stroke-opacity:1"
           d="m 40.544148,467.36775 c 0.912346,-2.72615 0.977102,-2.74274 1.430989,-4.05153 0.938203,-3.03698 2.807994,-9.17932 2.807994,-9.17932 10.441261,-0.23175 22.29405,-0.45136 35.106265,-0.48975 11.715856,-0.0351 21.092414,0.10921 21.092414,0.10921 10.52471,-0.28786 21.80047,-0.46421 34.62888,-0.46423 11.5399,-10e-6 20.76513,0.13589 20.76513,0.13589 1.34048,3.93262 4.01705,11.67253 4.01705,11.67253 0.8241,2.37151 1.61076,4.46737 1.6108,4.7426 5e-5,0.27523 -27.50165,-0.1144 -61.12763,-0.0873 -20.468367,0.0165 -61.353555,0.65437 -61.353555,0.65437 0.340848,-1.01162 0.681345,-2.02561 1.021663,-3.0425 z m 9.82372,-32.75003 c 0.348824,-1.03745 2.42749,-8.77332 2.765685,-10.34737 0.249789,-1.64704 0.748649,-4.9518 0.748649,-4.9518 8.792469,-0.82214 18.814332,-1.64102 29.629928,-2.15637 9.898606,-0.47165 17.8251,-0.52939 17.8251,-0.52939 8.61778,-0.24736 17.97745,-0.28213 28.48828,0.0343 9.49221,0.28573 17.07523,0.77077 17.07523,0.77077 0.48882,2.17251 1.46512,6.49363 1.46512,6.49363 0.34868,1.54098 1.98491,8.13136 2.33453,9.14296 0.2789,0.80696 -1.06591,1.1618 -8.07744,1.05614 -7.01154,-0.10567 -19.69689,-0.85006 -42.10027,-0.7736 -20.199542,0.0689 -37.279689,1.35165 -42.073779,1.65704 -7.002582,0.44608 -8.350357,0.40473 -8.081033,-0.39628 z"
           id="path100501"
           sodipodi:nodetypes="sscccssscssscccssss"
           inkscape:original-d="m 40.650941,468.09414 c 0.929536,-2.59694 0.994893,-2.60664 1.457839,-3.84414 l 2.876862,-8.6212 56.120868,0.76838 55.27789,-1.28736 4.00702,10.91042 c 0.82273,2.24016 1.60858,4.23613 1.60858,4.5 C 162,470.78411 134.51968,471 100.93261,471 H 39.610832 Z m 10.094029,-30.3869 c 0.336189,-0.8761 2.535424,-7.97624 2.867703,-9.30014 l 0.799238,-4.44954 47.262319,-0.34262 45.30424,-1.02191 1.44859,5.76722 c 0.33306,1.32601 1.97763,7.30247 2.31382,8.17857 0.55408,1.4439 -5.37014,1.70129 -49.98072,1.70129 -44.610585,0 -50.569268,0.91103 -50.01519,-0.53287 z" />
      </g>
    </g>
  </g>
</svg>
